<?xml version="1.0" encoding="UTF-8" standalone="no"?><!DOCTYPE svg PUBLIC "-//W3C//DTD SVG 1.1//EN" "http://www.w3.org/Graphics/SVG/1.1/DTD/svg11.dtd"><svg width="100%" height="100%" viewBox="0 0 24 24" version="1.1" xmlns="http://www.w3.org/2000/svg" xmlns:xlink="http://www.w3.org/1999/xlink" xml:space="preserve" xmlns:serif="http://www.serif.com/" style="fill-rule:evenodd;clip-rule:evenodd;stroke-linejoin:round;stroke-miterlimit:2;"><path d="M11.95,20c2.233,0 4.133,-0.775 5.7,-2.325c1.567,-1.55 2.35,-3.442 2.35,-5.675l-0,-0.175l1.6,1.6l1.4,-1.4l-4,-4l-4,4l1.4,1.4l1.6,-1.6l-0,0.175c-0,1.667 -0.588,3.083 -1.763,4.25c-1.175,1.167 -2.604,1.75 -4.287,1.75c-0.433,0 -0.858,-0.05 -1.275,-0.15c-0.417,-0.1 -0.825,-0.25 -1.225,-0.45l-1.5,1.5c0.633,0.367 1.283,0.642 1.95,0.825c0.667,0.183 1.35,0.275 2.05,0.275Zm-6.95,-4.025l4,-4l-1.4,-1.4l-1.6,1.6l-0,-0.175c-0,-1.667 0.587,-3.083 1.762,-4.25c1.175,-1.167 2.605,-1.75 4.288,-1.75c0.433,0 0.858,0.05 1.275,0.15c0.417,0.1 0.825,0.25 1.225,0.45l1.5,-1.5c-0.633,-0.367 -1.283,-0.642 -1.95,-0.825c-0.667,-0.183 -1.35,-0.275 -2.05,-0.275c-2.233,0 -4.133,0.775 -5.7,2.325c-1.567,1.55 -2.35,3.442 -2.35,5.675l-0,0.175l-1.6,-1.6l-1.4,1.4l4,4Z" style="fill:#fff;fill-rule:nonzero;"/></svg>