<?xml version="1.0" encoding="UTF-8" standalone="no"?><!DOCTYPE svg PUBLIC "-//W3C//DTD SVG 1.1//EN" "http://www.w3.org/Graphics/SVG/1.1/DTD/svg11.dtd"><svg width="100%" height="100%" viewBox="0 0 1024 415" version="1.1" xmlns="http://www.w3.org/2000/svg" xmlns:xlink="http://www.w3.org/1999/xlink" xml:space="preserve" xmlns:serif="http://www.serif.com/" style="fill-rule:evenodd;clip-rule:evenodd;stroke-linejoin:round;stroke-miterlimit:2;"><rect id="Artboard1" x="0" y="0" width="1024" height="414.314" style="fill:none;"/><g id="Artboard11" serif:id="Artboard1"><path d="M785.444,302.395c-0.154,0.027 -0.551,0.006 -0.712,0.053c-0.474,0.138 -0.8,0.543 -1.002,0.975c-0.805,1.723 -1.438,3.554 -2.325,5.305c-2.049,4.044 -5.541,6.718 -8.044,10.389c-0.849,1.245 -1.32,2.984 -1.89,4.377c-0.182,0.443 -0.952,1.824 -1.06,1.795c-0.844,2.229 -2.336,4.612 -3.694,6.203c-0.276,0.323 -1.954,4.375 -1.664,4.845c1.07,1.734 6.012,2.006 7.71,2.812c1.76,0.836 3.273,2.174 4.901,3.229c2.472,1.6 3.866,3.084 4.985,5.85c0.29,0.716 0.089,1.497 0.492,2.195c0.149,0.259 0.348,0.449 0.57,0.604c35.013,0.76 65.102,3.171 94.067,0.903c10.374,-0.812 28.63,-2.157 38.99,-1.176c12.96,1.227 26.06,1.514 39.051,2.468c7.667,0.563 33.907,-0.272 39.757,1.46c-11.009,2.753 -18.715,2.753 -32.477,4.404c-21.415,2.57 -41.308,2.47 -68.807,4.954c-85.321,7.707 -99.632,7.156 -167.889,6.606c-27.977,-0.226 -62.208,-0.591 -90.156,1.08c-21.738,1.299 -43.349,5.249 -65.13,5.952c-17.708,0.571 -35.991,0.079 -53.652,-1.244c-8.675,-0.65 -17.235,-2.576 -25.956,-2.533c-8.625,0.044 -17.182,1.506 -25.809,1.678c-25.657,0.512 -51.31,0.01 -76.962,1.329c-7.664,0.393 -15.067,2.477 -22.768,2.62c-19.019,0.354 -38.029,-3.304 -56.934,-4.732c-17.606,-1.33 -35.284,-0.987 -52.903,-2.05c-9.499,-0.574 -19.277,-3.102 -28.758,-3.071c-9.027,0.029 -18.148,2.206 -27.234,2.642c-19.685,0.943 -39.693,-3.971 -59.272,-5.926c-9.278,-0.926 -18.865,0.32 -28.18,0.216c-13.806,-0.154 -27.533,-1.567 -41.362,-1.188c-7.423,0.203 -31.344,0.823 -42.903,-2.48c3.833,-2.775 17.308,-3.386 19.816,-3.853c11.293,-2.106 28.139,-1.232 39.633,-1.101c48.44,0.551 68.825,-1.686 106.238,0.551c21.433,1.281 55.39,3.066 76.514,3.302c-7.707,-2.752 -20.801,-2.683 -24.22,-3.302c-7.908,-1.434 -18.771,-1.337 -18.165,-2.202c3.853,-5.505 11.009,-8.257 17.064,-7.707c5.509,0.501 6.605,-0.55 9.338,-0.247c-2.802,-2.653 -5.296,-5.647 -7.136,-9.11c-3.256,-6.124 -5.9,-13.149 -6.606,-19.817c-0.563,-5.323 0.091,-9.653 0.424,-15.056c0.657,-10.642 6.601,-20.885 13.005,-29.073c3.427,-4.382 6.385,-9.091 10.728,-12.676c6.373,-5.259 12.711,-9.392 20.43,-12.002c3.759,-1.271 9.899,-2.902 13.761,-3.853c9.464,-2.331 19.55,-2.414 29.175,-1.101c12.11,1.651 28.073,11.009 38.532,23.67c5.97,7.227 9.298,24.541 9.908,23.669c3.853,-5.504 5.504,-11.782 6.055,-13.211c2.252,-5.841 1.93,-5.325 4.404,-12.66c0.305,-0.907 0.599,-3.013 1.12,-3.841c-0.027,-0.03 -0.053,-0.059 -0.077,-0.084c-0.819,-0.861 -1.874,-1.527 -2.376,-2.644c-1.295,-2.88 -0.709,-7.809 0.478,-10.611c2.625,-6.205 12.597,-6.648 17.422,-2.863c1.81,1.419 1.955,3.857 2.213,5.959c0.701,5.718 -3.418,11.261 -8.534,12.678c-1.332,5.001 -4.092,10.263 -3.905,15.397c0.121,3.33 1.732,2.137 1.915,4.724c1.484,0.07 5.244,0.536 6.709,0.576c2.062,0.056 4.028,-0.437 6.113,-0.243c0.092,0.009 0.185,0.019 0.277,0.029c0.33,-0.25 0.676,-0.479 1.042,-0.684c2.391,-1.335 5.078,-2.036 7.42,-3.491c1.506,-0.936 2.332,-2.467 3.439,-3.799c2.102,-2.528 4.545,-5.807 7.502,-7.655c-0.67,-1.255 -1.094,-2.68 -1.1,-3.951c-0.041,-7.966 10.433,-13.809 18.14,-7.204c3.597,3.084 3.847,9.712 1,13.718c-1.419,1.999 -5.955,6.099 -10.909,4.448c-0.109,0.072 -2.492,2.086 -2.595,2.159c-1.39,0.992 -2.567,2.33 -3.568,3.704c-2.26,3.105 -4.487,6.378 -5.896,9.98c-0.372,0.953 -0.675,1.902 -0.963,2.837c0.041,0.122 0.081,0.246 0.118,0.37c0.812,2.658 -0.613,5.036 -0.371,7.667c0.778,8.452 0.444,16.612 -1.586,24.903c-0.624,2.546 -0.738,5.243 -2.014,7.605c-3.021,5.593 -8.541,9.462 -12.034,14.693c-0.988,1.479 -2.125,3.693 -1.986,5.532c0.001,0.015 0.003,0.029 0.004,0.044c42.263,-2.002 84.67,-4.342 127.772,-5.733c16.027,-0.518 31.989,-0.54 47.929,-0.571c-0.842,-0.884 -1.628,-1.746 -2.348,-2.518c-1.564,-1.678 -4.036,-2.154 -5.707,-3.77c-2.163,-2.092 -3.619,-4.932 -5.763,-7.105c-2.031,-2.058 -4.602,-3.329 -7.165,-4.565c-2.647,-1.274 -6.713,-5.732 -5.441,-8.983c0.689,-1.76 4.775,-3.007 6.491,-3.449c0.561,-0.145 -0.251,-1.255 0.069,-1.739c0.683,-1.029 2.128,-1.62 3.202,-2.122c6.117,-2.859 12.788,-4.869 18.481,-8.622c1.229,-0.81 2.419,-1.771 3.563,-2.802c-3.661,-1.07 -7.203,-3.403 -10.7,-4.846c-3.374,-1.392 -7.34,-1.207 -10.871,-1.092c-1.17,0.038 -2.458,-0.428 -3.608,-0.154c-1.201,0.285 -0.219,3.096 -0.024,3.745c0.841,2.795 3.662,7.699 1.29,10.239c-0.379,0.405 -1.857,-0.793 -2.171,-1.057c-1.555,-1.31 -2.824,-3.019 -4.173,-4.537c-0.181,-0.204 -1.142,-1.509 -1.454,-1.452c-5.695,1.048 2.291,6.036 1.088,8.627c-0.736,1.589 -3.063,0.887 -4.302,0.503c-2.42,-0.752 -3.781,-2.211 -5.873,-3.337c-1.479,-0.796 -3.212,-1.093 -4.576,-2.099c-4.925,-3.633 -8.245,-8.414 -11.497,-13.474c-10.131,-15.766 -13.067,-34.21 -12.843,-52.679c0.035,-2.935 -0.355,-5.831 -0.064,-8.769c0.763,-7.719 3.756,-15.125 9.109,-20.719c-1.916,-2.456 -3.811,-4.913 -5.679,-7.375c-8.333,-10.981 -16.217,-21.977 -23.587,-32.846c-6.685,-9.859 -12.95,-19.615 -18.695,-29.198c-4.076,-6.799 -7.884,-13.514 -11.42,-20.102c-6.487,-12.082 -12.045,-23.744 -16.558,-34.776c-5.42,-13.25 -9.309,-25.597 -11.45,-36.702c2.425,11.021 6.65,23.224 12.377,36.309c4.762,10.88 10.578,22.357 17.267,34.271c3.646,6.495 7.556,13.116 11.686,19.846c5.823,9.491 12.095,19.192 18.778,29.003c7.373,10.821 15.244,21.773 23.496,32.766c1.799,2.397 6.124,7.388 6.344,7.597c1.684,1.601 3.12,2.68 4.048,4.889c0.364,0.868 0.173,1.948 0.107,2.856c-0.009,0.112 -0.163,0.98 -0.033,1.05c0.218,0.116 0.985,-0.531 1.137,-0.644c1.901,-1.423 0.734,-2.116 1.176,-3.906c0.134,-0.546 0.883,-0.837 0.816,-1.449c-0.325,-2.957 -3.738,-3.678 -5.981,-5.03c2.577,-2.103 5.345,-4.091 8.364,-5.416c2.302,-1.011 4.984,-1.364 7.418,-1.936c3.175,-0.746 6.44,-1.221 9.731,-1.407c-0.035,0.673 -0.127,1.345 -0.133,1.646c-0.038,1.913 0.209,4.674 -0.728,6.433c-0.592,1.113 -2.016,1.757 -2.468,2.958c-0.412,1.089 0.696,2.273 1.788,2.158c2.299,-0.242 2.228,-3.092 2.363,-4.9c0.22,-2.969 0.799,-11.077 0.898,-12.268c0.88,-10.564 2.311,-25.11 4.491,-41.783c1.452,-11.11 3.227,-23.166 5.431,-35.612c1.372,-7.75 2.918,-15.649 4.633,-23.568c2.83,-13.071 6.129,-26.191 9.928,-38.772c4.031,-13.349 8.641,-26.08 13.865,-37.499c-4.928,11.53 -9.186,24.36 -12.898,37.779c-3.494,12.632 -6.483,25.786 -9.067,38.87c-1.565,7.926 -2.977,15.826 -4.269,23.567c-2.074,12.434 -3.818,24.461 -5.243,35.544c-2.138,16.636 -3.576,31.143 -4.507,41.677c-0.114,1.288 -0.22,2.516 -0.319,3.682c6.228,0.066 12.455,1.177 18.243,3.441c5.381,2.106 10.868,4.509 15.298,8.324c1.539,1.325 2.219,3.146 3.138,4.903c0.302,0.58 0.622,1.15 0.967,1.706c0.045,0.072 0.293,0.678 0.312,0.808c-0.034,-0.02 -0.051,-0.03 -0.051,-0.03c0.043,0.065 0.056,0.067 0.051,0.03c0.064,0.037 0.185,0.108 0.355,0.208c0.784,-0.33 1.572,-0.648 2.343,-0.997c4.926,-2.226 14.592,-2.763 19.943,-3.443c12.403,-1.575 23.89,-1.609 36.338,-0.828c4.829,0.304 16.329,2.452 21.128,3.115c4.107,0.567 21.87,-1.087 36.161,-0.925c0.013,-0.012 0.155,-0.145 0.404,-0.384c1.204,0.142 2.409,0.326 3.612,0.606c2.039,0.473 4.059,0.365 6.132,0.469c0.373,0.018 1.906,0.296 2.189,0.038c0.411,-0.377 -2.495,-1.622 -2.633,-1.67c-2.23,-0.779 -4.417,-1.493 -6.728,-1.953c3.434,-3.399 9.043,-9.127 12.454,-13.5c4.761,-6.102 9.591,-12.339 13.759,-18.865c3.027,-4.738 5.735,-10.957 10.886,-13.802c5.429,-2.997 16.762,-2.424 17.336,5.623c0.301,4.221 -6.459,4.555 -9.087,6.256c-2.268,1.469 -3.535,4.876 -4.523,7.251c-3.606,8.676 -7.009,17.5 -10.423,26.253c-0.829,2.125 -1.614,4.373 -2.465,6.612c3.432,0.326 8.327,0.777 14.015,1.299c-3.211,3.516 -5.929,7.737 -9.028,11.17c-7.174,7.951 -15.13,15.019 -21.216,23.887c-2.683,3.91 -4.826,7.857 -6.324,12.359c-0.496,1.491 -0.724,3.056 -0.982,4.602c-0.081,0.485 -0.158,0.97 -0.24,1.455c-0.002,0.014 -0.064,0.457 -0.115,0.634c-0.031,0.032 -0.049,0.05 -0.049,0.05c0.012,0.045 0.03,0.017 0.049,-0.05c0.271,-0.276 1.579,-1.616 1.801,-2.068c1.25,-2.553 2.871,-4.512 4.429,-6.851c5.15,-7.734 11.387,-14.666 17.398,-21.695c2.149,-2.513 3.717,-5.559 5.747,-8.177c3.41,-4.396 7.178,-8.326 11.138,-12.211c2.203,-2.162 4.673,-4.371 7.165,-6.199c0.153,-0.112 0.321,-0.227 0.497,-0.344c0.001,0.076 0.002,0.152 0.002,0.229c0.484,-0.395 0.973,-0.786 1.465,-1.173c0.671,-0.439 1.335,-0.909 1.843,-1.417c4.197,-3.162 8.602,-6.088 12.85,-9.15c4.472,-3.224 8.734,-6.879 13.435,-9.761c5.304,-3.252 11.169,-5.496 16.423,-8.833c4.585,-2.911 9.334,-4.755 14.736,-3.69c1.657,0.327 4.125,0.862 5.244,2.28c2.519,3.192 4.243,7.499 2.643,11.488c-0.283,0.706 -2.718,2.441 -2.734,2.704c-0.063,1.068 1.791,2.328 2.002,3.553c0.378,2.192 -1.971,3.256 -2.097,5.118c-0.068,1 1.663,1.377 1.453,2.422c-0.543,2.689 -4.313,5.319 -6.072,7.188c-1.728,1.835 -2.76,4.474 -4.205,6.556c-0.561,0.806 -1.077,1.633 -1.572,2.467c10.561,1.187 20.402,1.77 31.294,1.719c20.336,-0.096 37.203,-0.834 37.939,7.762c0.231,2.711 -9.928,11.43 -16.165,15.046c-12.445,7.218 -15.444,15.203 -56.628,25.877c-4.353,1.128 -8.535,1.16 -12.759,1.415c5.195,4.345 10.498,9.702 13.895,14.329c3.996,5.44 21.898,23.801 25.014,32.647c0.278,0.789 0.614,1.656 0.961,2.561c1.931,-0.232 4.98,-0.548 8.853,-0.777c4.604,-0.272 10.376,-0.445 16.8,-0.209c2.696,0.099 5.501,0.296 8.385,0.571c6.227,0.595 12.784,1.599 19.334,3.057c0.291,0.052 0.486,0.331 0.434,0.623c-0.051,0.291 -0.33,0.486 -0.622,0.434c-7.565,-1.013 -15.093,-1.329 -22.067,-1.394c-2.277,-0.021 -4.488,-0.017 -6.624,-0.003c-3.56,0.024 -6.898,0.095 -9.926,0.208c-4.729,0.175 -8.698,0.446 -11.558,0.667c-0.663,0.051 -1.266,0.099 -1.804,0.142c0.32,0.98 0.594,1.956 0.77,2.887c1.796,0.088 5.248,0.311 9.823,0.861c4.578,0.55 10.29,1.407 16.57,2.78c2.635,0.577 5.36,1.269 8.149,2.053c6.022,1.693 12.296,3.846 18.482,6.445c0.278,0.103 0.42,0.412 0.317,0.69c-0.103,0.278 -0.411,0.42 -0.689,0.317c-7.265,-2.342 -14.617,-3.992 -21.469,-5.295c-2.236,-0.425 -4.413,-0.814 -6.517,-1.18c-3.508,-0.609 -6.805,-1.133 -9.805,-1.56c-4.685,-0.668 -8.638,-1.107 -11.492,-1.399c-1.261,-0.129 -2.306,-0.23 -3.102,-0.304c-0.038,3.503 -1.204,5.115 -4.6,5.598c-5.21,0.741 -12.512,-0.517 -17.258,-1.939c-2.844,-0.853 -19.213,-6.34 -25.646,-8.649c-5.821,-2.089 -13.463,-4.461 -19.35,-6.303c-2.551,-0.798 -4.957,-1.503 -7.258,-2.146c0.69,-1.598 1.328,-3.198 2.566,-4.672c1.007,-1.199 3.261,-1.373 4.681,-1.737c0.126,-0.032 1.524,-0.458 1.359,-0.713c-0.393,-0.602 -2.768,-0.994 -3.475,-1.207c-0.136,-0.042 -1.075,-0.263 -1.065,-0.431c0.018,-0.291 0.998,-0.918 1.206,-1.106c1.814,-1.635 3.53,-1.394 5.645,-2.323c0.518,-0.228 2.279,-1.071 1.963,-1.88c-0.703,-1.805 -3.648,-0.293 -4.741,0.122c-0.115,0.044 -1.963,0.584 -1.938,0.498c0.168,-0.574 1.094,-1.298 1.465,-1.754c1.037,-1.276 2.244,-4.165 3.666,-4.991c0.508,-0.295 1.359,-0.151 1.92,-0.251c1.529,-0.272 3.949,-1.561 3.746,-3.5c-0.058,-0.554 -0.833,-0.218 -1.107,-0.09c-1.208,0.562 -2.331,1.128 -3.591,1.576c-0.481,0.171 -1.765,0.341 -1.13,-0.632c0.084,-0.13 -0.033,-0.657 -0.088,-0.878c0.081,-0.014 0.096,-0.042 -0.024,-0.099c-0,0 0.009,0.038 0.024,0.099Zm1.165,-2.534c0.006,-0.037 0.009,-0.06 0.009,-0.06c-0.045,0.086 -0.041,0.096 -0.009,0.06Zm0,-0c-0.022,0.149 -0.068,0.528 0.027,0.554c1.967,0.529 2.778,-1.897 4.223,-2.992c1.266,-0.96 4.278,-0.614 4.943,-2.257c0.381,-0.942 -1.976,-0.15 -2.061,-1.048c-0.057,-0.605 0.436,-1.437 0.65,-1.967c0.582,-1.444 1.101,-2.824 1.876,-4.182c1.352,-2.369 2.449,-3.806 4.663,-5.494c0.536,-0.408 3.833,-1.884 2.789,-2.768c-1.092,-0.926 -2.954,0.318 -4.093,0.574c-1.074,0.242 -2.943,0.368 -3.809,1.139c-1.09,0.969 -1.031,3.195 -1.559,4.491c-1.176,2.888 -2.469,4.711 -4.514,7.02c-0.59,0.666 -0.299,1.597 -0.453,2.408c-0.148,0.787 -0.705,1.57 -1.123,2.231c-0.336,0.532 -0.699,1.048 -1.043,1.575c-0.018,0.028 -0.412,0.601 -0.516,0.716Zm25.334,-42.383c-0,0 1.232,-0.402 1.082,-0.598c-1.173,-1.536 -0.297,-2.659 0.565,-4.146c0.076,-0.129 1.011,-2.034 0.809,-2.065c-0.37,-0.056 -2.025,1.309 -2.22,1.558c-0.569,0.726 -0.785,-0.755 -2.096,2.415c-0.356,0.861 -0.126,0.965 -0.599,1.805c-0.169,0.302 -0.814,1.138 -0.699,1.509c0.295,0.944 2.828,-0.478 3.158,-0.478Zm-423.029,82.646c0,0 0.812,-0.056 0.953,0.072c0.807,0.729 2.955,0.525 3.937,0.525c3.484,0 7.343,0.312 10.778,-0.27c1.393,-0.236 2.346,-1.027 2.1,-2.521c-0.301,-1.824 -3,-2.64 -4.537,-2.888c-3.158,-0.511 -6.309,-0.454 -9.49,-0.375c-1.784,0.045 -3.713,-0.07 -5.424,0.536c-2.044,0.724 -1.04,2.477 -0.026,3.606c0.123,0.136 1.709,1.484 1.709,1.315Zm364.755,-54.85c0,0 0.693,-0.535 0.891,-0.623c0.415,-0.184 0.793,-0.421 1.133,-0.723c1.958,-1.737 -0.182,-3.309 -2.057,-3.583c-1.477,-0.216 -2.937,0.62 -3.823,1.765c-1.2,1.553 0.196,2.695 1.647,3.195c0.534,0.184 1.053,0.302 1.619,0.207c0.065,-0.011 0.642,-0.172 0.59,-0.238Zm10.764,-12.122c-0,-0 -0.122,-0.377 -0.046,-0.408c0.77,-0.317 1.059,-1.543 0.407,-2.129c-0.783,-0.704 -2.319,-0.011 -2.793,0.762c-0.563,0.918 0.219,1.611 1.112,1.739c0.292,0.042 0.59,0.047 0.884,0.057c0.066,0.002 0.505,0.041 0.436,-0.021Zm35.062,3.362c0,-0 0.916,0.269 1.068,0.117c2.843,-2.836 2.678,-8.077 6.009,-10.334c2.016,-1.365 4.484,-1.144 6.515,-2.266c0.294,-0.163 1.901,-1.333 1.382,-1.829c-0.634,-0.606 -3.291,-0.072 -4.062,0.025c-1.591,0.201 -4.073,-0.009 -5.445,0.897c-1.976,1.303 -2.2,5.07 -3.573,6.92c-0.987,1.33 -1.532,2.651 -1.714,4.297c-0.057,0.517 -0.092,1.035 -0.101,1.556c-0.003,0.207 -0.258,0.721 -0.079,0.617Zm-212.397,-36.796c-5.462,-3.151 -13.408,-3.33 -19.722,-0.951c-3.65,1.375 -10.415,5.757 -12.379,9.025c-3.642,6.059 -5.432,11.446 -3.602,19.054c2.558,10.639 15.362,12.744 24.476,9.559c7.361,-2.572 10.769,-6.823 14.722,-16.301c1.874,-4.493 2.204,-17.098 -3.495,-20.386Zm-27.504,18.603c-0,0 1.615,1.037 2.003,1.318c4.676,3.379 -1.99,8.889 -5.922,5.404c-1.653,-1.465 -1.56,-4.159 0.09,-5.528c0.727,-0.603 1.634,-1.069 2.567,-1.243c0.163,-0.031 1.837,-0.031 1.262,0.049Zm-116.126,9.389c1.137,-1.028 0.377,-4.066 0.007,-4.296c-0.722,-0.449 -1.712,-0.511 -2.541,-0.551c-1.841,-0.089 -4.05,1.644 -3.437,3.651c0.788,2.58 3.889,3.079 5.971,1.196Zm303.213,24.064c0,-0 0.651,-0.276 0.806,-0.36c0.869,-0.479 1.926,-2.271 0.86,-3.058c-1.404,-1.037 -4.162,-0.545 -5.111,0.878c-0.955,1.429 0.39,2.128 1.585,2.544c0.404,0.141 0.804,0.221 1.234,0.173c0.215,-0.024 0.843,-0.177 0.626,-0.177Zm-13.276,15.739c0,-0 0.997,-1.267 1.174,-1.626c0.693,-1.406 -2.374,-1.74 -3.158,-1.42c-0.331,0.135 -0.621,0.351 -0.884,0.591c-2.315,2.122 1.045,3.211 2.868,2.455Zm6.273,-6.361c0,0 1.259,-1.276 1.571,-1.54c0.312,-0.264 0.596,-0.552 0.829,-0.889c0.798,-1.161 0.513,-2.289 -0.947,-2.449c-1.445,-0.158 -3.148,0.184 -4.398,0.921c-1.097,0.646 -1.805,2.217 -0.6,3.163c0.865,0.678 2.474,0.969 3.545,0.794Zm-337.497,-48.081c0.296,-0.737 -0.85,-3.448 -1.098,-3.526c-0.681,-0.214 -1.691,-0.998 -3.226,-0.457c-2.206,0.778 -3.03,2.773 -1.859,4.364c1.873,2.546 5.051,2.429 6.183,-0.381Zm175.983,88.95c0.567,0.618 1.16,1.203 1.795,1.737c3.399,2.858 7.649,4.334 11.12,7.022c4.631,-0.018 9.262,-0.047 13.891,-0.098c0.375,-0.966 0.623,-1.981 0.762,-3.018c0.627,-4.673 -1.534,-9.634 -0.217,-14.228c0.354,-1.235 1.732,-4.105 3.496,-3.154c3.668,1.978 2.375,9.561 2.264,12.721c-0.091,2.631 -0.529,5.166 -1.265,7.613c19.504,-0.294 39.011,-1.076 58.597,-3.271c2.756,-0.309 5.564,-0.538 8.414,-0.7c1.336,-1.479 2.59,-2.991 3.462,-4.64c0.986,-1.864 0.338,-5.402 0.361,-7.277c0.081,-6.403 -0.338,-12.583 -1.257,-18.876c-5.465,0.301 -10.995,0.083 -16.416,-0.562c-1.129,-0.134 -3.323,-0.223 -4.05,-1.322c-0.359,-0.542 0.312,-2.184 -0.267,-2.423c-0.276,-0.114 -0.572,-0.193 -0.882,-0.248c-1.963,1.726 -3.583,3.934 -6.04,5.084c-1.725,0.807 -4.41,1.805 -6.247,0.848c-1.97,-1.025 -2.637,-2.37 -2.783,-3.859c0.144,-1.036 0.221,-1.822 0.221,-1.822c0.061,0.056 0.023,-0.59 0.018,-0.669c-0.028,-0.444 0.047,-0.888 0.112,-1.326c0.214,-1.429 0.405,-2.821 0.469,-4.267c0.185,-4.192 1.37,-7.944 3.01,-11.79c0.997,-2.339 2.353,-4.495 3.384,-6.811c1.442,-3.241 2.458,-6.488 4.447,-9.476c2.692,-4.041 6.479,-7.51 9.599,-11.247c2.754,-3.298 5.171,-8.02 9.837,-8.941c1.895,-0.374 2.887,1.356 3.51,2.726c1.442,3.175 1.414,6.796 2.015,10.193c0.881,4.983 0.187,10.5 0.458,15.564c0.366,6.847 1.774,13.882 2.954,20.6c0.401,2.286 0.584,6.362 2.021,8.823c-0.093,0.037 -0.186,0.073 -0.279,0.108c0.179,1.453 0.552,2.853 1.309,4.13c1.232,2.079 2.816,2.363 4.762,3.369c0.526,0.272 1.428,0.887 1.289,1.604c-0.437,2.27 -4.945,-2.017 -5.674,0.119c-1.041,3.046 1.408,4.588 3.407,6.468c0.344,0.323 1.707,1.061 1.764,1.547c0.118,1.002 -3.844,-0.212 -4.287,1.131c-0.605,1.837 -0.301,4.821 0.432,6.58c0.46,1.101 1.726,1.84 1.612,3.135c-0.099,1.135 -0.787,2.185 -1.489,3.215c27.063,-0.104 56.774,4.337 82.086,4.496c0.567,0.004 1.134,0.008 1.699,0.012c-0.235,-0.388 -0.475,-0.766 -0.723,-1.13c-1.999,-2.928 -4.757,-5.257 -7.72,-7.145c-1.668,-1.064 -3.83,-2.373 -5.886,-2.463c-1.758,-0.077 -4.307,0.999 -5.874,-0.304c-0.842,-0.701 -0.453,-2.891 -0.244,-3.78c0.463,-1.976 2.039,-1.655 3.425,-2.508c2.542,-1.566 4.941,-3.558 7.016,-5.696c0.426,-0.438 1.411,-1.697 2.457,-3.006c0.209,-0.218 0.433,-0.454 0.671,-0.709c5.326,-5.721 19.701,-33.688 20.541,-35.841c0.841,-2.154 9.908,-19.164 11.454,-22.516c1.546,-3.352 10.439,-20.268 15.053,-27.902c4.292,-7.103 5.154,-9.566 5.198,-9.699c0.058,0.008 0.114,0.015 0.17,0.021c0.565,-1.482 1.14,-2.956 1.881,-4.27c1.751,-3.105 4.21,-5.913 5.656,-9.17c0.797,-1.795 4.613,-7.589 -0.008,-6.381c-0.523,0.138 -1.038,0.307 -1.539,0.511c-5.217,2.132 -9.316,7.562 -12.677,11.767c-1.626,2.033 -3.131,4.155 -4.605,6.299c3.214,0.329 6.071,0.634 8.418,0.902c-0.534,0.819 -1.227,1.957 -1.845,3.211c-1.218,2.475 -17.48,32.722 -18.542,35.115c-1.062,2.393 -13.493,25.744 -14.685,27.849c-1.194,2.104 -10.694,17.031 -11.741,19.355c-0.734,1.63 -4.71,6.569 -7.02,9.374c-3.449,-0.883 -6.859,-1.786 -10.431,-2.859c-9.917,-2.981 -18.108,-4.685 -29.767,-7.828c-5.118,-1.379 -14.419,3.998 -19.709,4.355c-4.187,0.282 -5.834,1.97 -8.624,-2.123c-0.404,-0.593 -0.942,-0.868 -1.571,-0.933c-1.498,-3.708 -2.214,-7.913 -2.812,-11.853c-0.496,-3.27 -1.244,-6.526 -1.561,-9.822c-0.275,-2.857 -0.108,-5.787 -0.526,-8.625c-0.899,-6.098 -2.388,-11.721 -2.478,-17.947c-0.056,-3.971 -1.77,-11.295 -5.742,-13.285c-6.729,-3.372 -10.85,5.92 -13.666,9.905c-2.146,3.038 -3.029,5.162 -5.436,8.039c-3.14,3.752 -9.1,12.029 -12.359,16.671c-2.693,3.838 -4.364,7.87 -6.582,11.994c-1.722,3.204 -1.794,5.193 -3.23,8.551c-0.355,0.83 -0.743,1.738 -1.084,2.685c-4.319,0.329 -8.211,0.899 -12.04,0.171c-0.983,1.041 -2.063,1.928 -3.149,2.592c-5.4,3.303 -12.444,3.231 -18.386,5.124c-7.644,2.434 -14.553,6.744 -22.24,9.039c-1.972,0.589 -3.908,1.06 -5.98,0.757c-1.426,-0.207 -4.422,-2.2 -5.821,-1.283c-0.396,0.259 -0.586,1.122 -0.933,1.483c-0.286,0.299 -0.845,0.47 -1.054,0.818c-0.292,0.489 1.047,1.25 1.329,1.444c1.335,0.917 2.534,2.11 3.725,3.257c0.253,-0.039 0.48,-0.075 0.655,-0.094c0.758,-0.08 1.514,-0.2 2.255,-0.38c0.567,-0.138 1.128,-0.31 1.663,-0.547c0.25,-0.111 0.532,-0.626 0.709,-0.417c0.046,0.055 -0.568,0.858 -0.603,0.906c-0.706,0.956 -1.59,1.854 -2.747,2.227c-0.037,0.011 -0.073,0.022 -0.109,0.033c1.42,1.429 2.653,3.081 3.917,4.69c0.652,0.008 1.391,-0.154 2.566,-0.299c0.987,-0.121 3.736,-0.413 4.026,1.027c0.099,0.495 -1.748,0.8 -2.05,0.917c-0.792,0.309 -1.69,0.543 -2.41,0.906Zm251.975,-137.721c0.018,0.056 0.509,-0.178 0.551,-0.198c0.47,-0.227 0.822,-0.606 0.938,-1.125c0.241,-1.076 -0.543,-2.537 -1.684,-2.772c-2.461,-0.506 -2.499,2.444 -1.133,3.646c0.211,0.185 1.328,0.449 1.328,0.449Zm-71.36,74.173c0,-0 0.867,-1.092 1.181,-1.222c0.841,-0.346 2.841,-2.1 1.445,-3.008c-1.129,-0.735 -3.235,-0.583 -4.393,-0.049c-1.148,0.529 -2.759,2.253 -2.049,3.621c0.623,1.2 2.741,1.092 3.816,0.658Zm-204.759,-59.618c0,-0 0.038,0.499 0.118,0.525c2.317,0.752 3.903,-1.506 5.289,-3.624c0.631,-0.964 1.094,-3.231 -0.179,-3.801c-0.243,-0.109 -0.508,-0.097 -0.759,-0.066c-0.207,0.024 -0.417,0.073 -0.614,0.157c-1.154,0.496 0.074,1.971 -0.35,3.128c-0.259,0.708 -0.042,0.76 -1.569,1.822c-0.597,0.415 -1.782,0.304 -2.395,0.55c-0.193,0.077 -0.622,0.063 -0.757,0.285c-0.298,0.489 0.638,0.847 0.82,0.912c0.052,0.019 0.472,0.112 0.396,0.112Zm-255.951,96.361c-0.281,-0.687 -0.697,-1.582 -0.858,-2.655c-0.116,-0.771 -0.084,-1.635 0.245,-2.583c0.699,-2.02 1.831,-3.325 3.181,-4.15c1.545,-0.944 3.376,-1.229 5.158,-1.265c1.852,-0.052 2.994,0.107 3.794,0.395c0.78,0.281 1.178,0.718 1.643,1.171c0.422,0.412 0.879,0.836 1.514,1.244c1.67,1.073 2.434,3.22 2.653,5.436c0.232,2.339 -0.177,4.801 -1.084,6.393c-0.937,1.647 -2.101,3.067 -3.451,4.276c-1.364,1.22 -2.922,2.221 -4.634,3.023c-0.694,0.325 -4.454,1.13 -8.626,0.606c-2.679,-0.336 -5.541,-1.235 -7.853,-3.258c-2.489,-2.178 -3.827,-5.038 -4.448,-7.877c-0.769,-3.516 -0.441,-7.015 0.291,-9.236c1.319,-4.022 3.595,-7.022 6.038,-9.25c3.728,-3.399 7.858,-5.019 9.735,-5.662c5.027,-1.728 11.214,-1.991 16.929,-0.365c5.317,1.511 10.233,4.663 13.389,9.838c2.356,3.859 3.667,8.703 4.224,13.313c0.695,5.742 0.246,11.131 -0.94,13.782c-0.512,1.145 -1.744,3.053 -3.147,5.058c-2.003,2.863 -4.358,5.91 -5.576,7.283c-1.847,2.075 -5.516,5.182 -10.619,7.403c-3.572,1.555 -7.848,2.674 -12.697,2.696c-2.788,0.012 -6.123,-0.285 -9.426,-0.844c-3.255,-0.552 -6.478,-1.358 -9.106,-2.387c-1.114,-0.436 -2.111,-0.986 -3.044,-1.618c-1.477,-1 -2.792,-2.2 -4.139,-3.475c-2.536,-2.401 -4.913,-4.977 -6.906,-7.776c-1.988,-2.793 -3.592,-5.808 -4.571,-9.094c-1.115,-3.744 -1.352,-9.006 -1.036,-14.079c0.348,-5.592 1.362,-10.962 2.712,-13.795c0.412,-0.865 1.861,-2.803 3.49,-4.879c2.415,-3.075 5.241,-6.427 5.949,-7.072c3.757,-3.427 7.561,-6.12 11.696,-8.146c4.111,-2.014 8.55,-3.367 13.598,-4.122c3.216,-0.491 6.256,-0.693 9.183,-0.699c2.078,-0.005 4.097,0.075 6.092,0.335c4.904,0.641 9.629,2.187 14.527,4.947c0.231,0.143 0.535,0.073 0.679,-0.157c0.144,-0.23 0.074,-0.534 -0.156,-0.678c-4.826,-3.342 -9.586,-5.44 -14.634,-6.523c-2.099,-0.451 -4.243,-0.736 -6.459,-0.816c-3.078,-0.112 -6.28,0.176 -9.668,0.671c-5.37,0.801 -10.093,2.238 -14.466,4.384c-4.375,2.147 -8.399,5.004 -12.37,8.64c-0.743,0.681 -3.728,4.199 -6.263,7.442c-1.798,2.301 -3.362,4.474 -3.815,5.431c-1.444,3.059 -2.581,8.837 -2.934,14.866c-0.318,5.427 -0.007,11.051 1.2,15.052c1.078,3.575 2.826,6.859 5.002,9.896c2.103,2.935 4.606,5.639 7.279,8.154c1.461,1.375 2.895,2.66 4.494,3.738c1.096,0.738 2.269,1.38 3.577,1.89c2.783,1.084 6.195,1.941 9.642,2.52c3.464,0.581 6.963,0.884 9.886,0.868c5.252,-0.028 9.881,-1.242 13.748,-2.929c5.551,-2.421 9.531,-5.82 11.539,-8.078c1.263,-1.416 3.705,-4.558 5.787,-7.506c1.533,-2.171 2.867,-4.244 3.43,-5.484c1.33,-2.924 1.979,-8.871 1.254,-15.227c-0.573,-5.015 -1.993,-10.28 -4.524,-14.493c-3.53,-5.873 -9.045,-9.496 -15.043,-11.241c-6.328,-1.842 -13.191,-1.575 -18.778,0.31c-2.093,0.709 -6.707,2.497 -10.861,6.283c-2.801,2.553 -5.388,6.007 -6.888,10.62c-0.848,2.621 -1.251,6.746 -0.315,10.881c0.775,3.431 2.459,6.862 5.494,9.472c2.806,2.411 6.24,3.51 9.469,3.885c4.941,0.573 9.367,-0.559 10.185,-0.952c1.951,-0.941 3.722,-2.112 5.27,-3.528c1.551,-1.419 2.881,-3.08 3.947,-5.001c1.108,-2.001 1.655,-5.067 1.329,-7.982c-0.338,-3.018 -1.608,-5.838 -3.909,-7.269c-0.638,-0.396 -1.038,-0.831 -1.46,-1.22c-0.601,-0.556 -1.225,-1.059 -2.244,-1.387c-0.999,-0.322 -2.42,-0.48 -4.699,-0.294c-2.118,0.19 -4.262,0.714 -6.024,1.964c-1.558,1.105 -2.846,2.747 -3.521,5.239c-0.325,1.198 -0.293,2.268 -0.085,3.209c0.257,1.16 0.768,2.112 1.127,2.841c0.111,0.248 0.403,0.359 0.651,0.247c0.247,-0.111 0.358,-0.402 0.247,-0.65Zm460.608,-94.648c-0.049,-0.906 -0.091,-1.814 -0.123,-2.725c-0.306,-8.666 1.348,-17.279 2.096,-25.879c0.436,-5.02 0.095,-11 6.944,-9.529c2.385,0.512 4.548,3.295 4.017,5.811c-0.354,1.68 -2.06,2.728 -2.785,4.25c-1.015,2.132 -1.247,5.052 -1.521,7.364c-0.472,3.967 -0.39,7.907 -0.249,11.844c-1.648,1.467 -3.267,2.926 -4.707,4.631c-0.811,0.961 -1.218,2.131 -2.221,2.951c-0.498,0.406 -0.981,0.835 -1.451,1.282Z"/></g></svg>