<?xml version="1.0" encoding="UTF-8" standalone="no"?><!DOCTYPE svg PUBLIC "-//W3C//DTD SVG 1.1//EN" "http://www.w3.org/Graphics/SVG/1.1/DTD/svg11.dtd"><svg width="100%" height="100%" viewBox="0 0 2048 960" version="1.1" xmlns="http://www.w3.org/2000/svg" xmlns:xlink="http://www.w3.org/1999/xlink" xml:space="preserve" xmlns:serif="http://www.serif.com/" style="fill-rule:evenodd;clip-rule:evenodd;stroke-linejoin:round;stroke-miterlimit:2;"><rect id="Logo" x="0" y="0" width="2048" height="960" style="fill:none;"/><g id="Logo1" serif:id="Logo"><path d="M1507.07,583.826c-0.28,0.049 -1.002,0.011 -1.294,0.096c-0.861,0.25 -1.454,0.986 -1.821,1.772c-1.461,3.13 -2.611,6.455 -4.223,9.636c-3.723,7.347 -10.067,12.206 -14.614,18.875c-1.541,2.26 -2.397,5.42 -3.433,7.95c-0.33,0.806 -1.729,3.314 -1.926,3.262c-1.532,4.049 -4.244,8.378 -6.711,11.269c-0.5,0.587 -3.55,7.947 -3.022,8.802c1.944,3.15 10.922,3.643 14.007,5.108c3.197,1.518 5.945,3.95 8.903,5.865c4.491,2.908 7.023,5.603 9.056,10.629c0.527,1.3 0.162,2.719 0.893,3.986c0.272,0.471 0.632,0.817 1.036,1.099c63.607,1.38 118.269,5.759 170.89,1.64c18.845,-1.476 52.011,-3.919 70.831,-2.137c23.545,2.229 47.342,2.751 70.944,4.484c13.928,1.023 61.598,-0.494 72.225,2.653c-20,5 -34,5 -59,8c-38.905,4.668 -75.044,4.487 -125,9c-155,14 -181,13 -305,12c-50.825,-0.41 -113.012,-1.074 -163.783,1.962c-39.491,2.361 -78.752,9.537 -118.321,10.813c-32.17,1.038 -65.384,0.143 -97.468,-2.26c-15.76,-1.181 -31.311,-4.68 -47.154,-4.601c-15.669,0.079 -31.214,2.735 -46.886,3.048c-46.611,0.93 -93.213,0.019 -139.815,2.414c-13.923,0.715 -27.372,4.501 -41.361,4.761c-34.553,0.643 -69.087,-6.004 -103.431,-8.598c-31.984,-2.415 -64.099,-1.793 -96.108,-3.724c-17.257,-1.042 -35.019,-5.634 -52.243,-5.579c-16.399,0.054 -32.969,4.008 -49.476,4.8c-35.762,1.714 -72.109,-7.214 -107.678,-10.765c-16.855,-1.683 -34.272,0.581 -51.193,0.392c-25.081,-0.28 -50.019,-2.847 -75.142,-2.158c-13.485,0.369 -56.941,1.495 -77.941,-4.505c6.964,-5.042 31.443,-6.151 36,-7c20.516,-3.826 51.119,-2.238 72,-2c88,1 125.032,-3.064 193,1c38.937,2.327 100.625,5.571 139,6c-14,-5 -37.789,-4.874 -44,-6c-14.365,-2.605 -34.1,-2.428 -33,-4c7,-10 20,-15 31,-14c10.009,0.909 12,-1 16.964,-0.449c-5.09,-4.821 -9.62,-10.26 -12.964,-16.551c-5.914,-11.125 -10.718,-23.886 -12,-36c-1.023,-9.671 0.166,-17.537 0.771,-27.352c1.193,-19.333 11.991,-37.941 23.625,-52.817c6.225,-7.961 11.599,-16.515 19.489,-23.027c11.578,-9.555 23.092,-17.062 37.115,-21.804c6.829,-2.31 17.983,-5.272 25,-7c17.192,-4.235 35.515,-4.385 53,-2c22,3 51,20 70,43c10.846,13.129 16.892,44.583 18,43c7,-10 9.999,-21.405 11,-24c4.091,-10.611 3.506,-9.675 8,-23c0.555,-1.647 1.089,-5.473 2.036,-6.978c-0.05,-0.055 -0.097,-0.106 -0.14,-0.152c-1.488,-1.565 -3.405,-2.775 -4.317,-4.803c-2.353,-5.233 -1.287,-14.186 0.868,-19.278c4.769,-11.272 22.885,-12.076 31.65,-5.201c3.288,2.578 3.553,7.007 4.021,10.826c1.273,10.388 -6.209,20.458 -15.503,23.032c-2.42,9.085 -7.434,18.645 -7.094,27.972c0.22,6.049 3.146,3.882 3.479,8.582c2.696,0.127 9.526,0.973 12.187,1.045c3.746,0.102 7.318,-0.793 11.105,-0.44c0.168,0.016 0.336,0.033 0.503,0.051c0.6,-0.454 1.229,-0.869 1.894,-1.241c4.344,-2.426 9.225,-3.699 13.479,-6.343c2.737,-1.701 4.237,-4.481 6.248,-6.901c3.818,-4.593 8.257,-10.549 13.629,-13.906c-1.218,-2.281 -1.987,-4.869 -1.998,-7.178c-0.075,-14.472 18.953,-25.087 32.953,-13.087c6.535,5.601 6.99,17.642 1.818,24.921c-2.579,3.63 -10.818,11.079 -19.818,8.079c-0.199,0.131 -4.528,3.791 -4.714,3.923c-2.526,1.803 -4.665,4.233 -6.482,6.729c-4.107,5.64 -8.153,11.587 -10.711,18.13c-0.677,1.731 -1.227,3.455 -1.75,5.154c0.074,0.222 0.146,0.447 0.215,0.673c1.474,4.828 -1.114,9.148 -0.674,13.927c1.413,15.355 0.806,30.18 -2.882,45.241c-1.133,4.625 -1.34,9.526 -3.658,13.817c-5.489,10.16 -15.518,17.189 -21.863,26.692c-1.794,2.686 -3.861,6.708 -3.607,10.05c0.002,0.026 0.004,0.053 0.006,0.08c76.779,-3.638 153.818,-7.888 232.12,-10.416c29.116,-0.941 58.115,-0.981 87.072,-1.037c-1.53,-1.605 -2.957,-3.171 -4.265,-4.575c-2.841,-3.048 -7.333,-3.912 -10.369,-6.848c-3.929,-3.8 -6.574,-8.96 -10.469,-12.907c-3.689,-3.74 -8.36,-6.049 -13.017,-8.293c-4.808,-2.316 -12.194,-10.413 -9.884,-16.32c1.251,-3.197 8.674,-5.462 11.792,-6.266c1.02,-0.263 -0.456,-2.28 0.126,-3.158c1.24,-1.87 3.865,-2.943 5.817,-3.855c11.113,-5.194 23.232,-8.847 33.573,-15.664c2.234,-1.472 4.395,-3.218 6.474,-5.09c-6.651,-1.945 -13.086,-6.183 -19.44,-8.804c-6.129,-2.528 -13.333,-2.193 -19.748,-1.984c-2.126,0.069 -4.466,-0.778 -6.555,-0.28c-2.182,0.519 -0.397,5.625 -0.043,6.804c1.527,5.078 6.653,13.986 2.344,18.6c-0.689,0.737 -3.375,-1.44 -3.945,-1.92c-2.825,-2.38 -5.131,-5.484 -7.58,-8.242c-0.329,-0.37 -2.076,-2.741 -2.642,-2.637c-10.347,1.903 4.162,10.965 1.977,15.672c-1.338,2.886 -5.566,1.612 -7.816,0.913c-4.397,-1.365 -6.868,-4.016 -10.669,-6.062c-2.687,-1.446 -5.836,-1.986 -8.314,-3.813c-8.947,-6.599 -14.978,-15.286 -20.885,-24.478c-18.406,-28.641 -23.74,-62.148 -23.332,-95.7c0.064,-5.332 -0.646,-10.594 -0.117,-15.93c1.387,-14.023 6.823,-27.478 16.548,-37.64c-3.48,-4.462 -6.922,-8.926 -10.316,-13.398c-15.139,-19.949 -29.461,-39.925 -42.85,-59.671c-12.145,-17.91 -23.526,-35.633 -33.963,-53.043c-7.404,-12.351 -14.323,-24.55 -20.747,-36.518c-11.784,-21.95 -21.881,-43.135 -30.08,-63.178c-9.846,-24.07 -16.912,-46.5 -20.801,-66.674c4.406,20.021 12.082,42.19 22.486,65.961c8.651,19.765 19.216,40.615 31.368,62.259c6.624,11.799 13.727,23.827 21.229,36.054c10.579,17.242 21.973,34.866 34.114,52.688c13.394,19.659 27.694,39.555 42.684,59.526c3.268,4.354 11.125,13.421 11.525,13.801c3.059,2.909 5.669,4.868 7.354,8.881c0.662,1.577 0.315,3.54 0.194,5.189c-0.015,0.204 -0.296,1.78 -0.059,1.907c0.396,0.212 1.79,-0.964 2.066,-1.17c3.452,-2.584 1.333,-3.844 2.135,-7.096c0.245,-0.991 1.605,-1.519 1.483,-2.632c-0.59,-5.372 -6.791,-6.681 -10.865,-9.138c4.681,-3.82 9.71,-7.431 15.195,-9.839c4.182,-1.836 9.053,-2.478 13.475,-3.517c5.768,-1.355 11.7,-2.217 17.678,-2.556c-0.064,1.223 -0.23,2.444 -0.241,2.991c-0.07,3.475 0.379,8.49 -1.323,11.686c-1.076,2.022 -3.662,3.193 -4.484,5.374c-0.747,1.979 1.265,4.129 3.248,3.921c4.178,-0.44 4.048,-5.618 4.293,-8.903c0.401,-5.393 1.452,-20.123 1.632,-22.287c1.598,-19.191 4.199,-45.616 8.158,-75.905c2.638,-20.183 5.864,-42.085 9.867,-64.695c2.493,-14.08 5.302,-28.43 8.416,-42.816c5.141,-23.746 11.136,-47.58 18.037,-70.436c7.322,-24.25 15.697,-47.379 25.187,-68.123c-8.951,20.945 -16.687,44.254 -23.43,68.631c-6.348,22.949 -11.778,46.845 -16.472,70.615c-2.844,14.399 -5.408,28.75 -7.755,42.814c-3.769,22.588 -6.937,44.436 -9.525,64.571c-3.885,30.223 -6.497,56.576 -8.188,75.713c-0.207,2.34 -0.4,4.572 -0.58,6.69c11.314,0.119 22.627,2.137 33.141,6.251c9.777,3.825 19.745,8.191 27.792,15.121c2.796,2.407 4.032,5.716 5.7,8.908c0.55,1.053 1.131,2.089 1.757,3.099c0.082,0.131 0.533,1.232 0.567,1.468c-0.061,-0.036 -0.092,-0.055 -0.092,-0.055c0.077,0.119 0.102,0.122 0.092,0.055c0.116,0.067 0.336,0.197 0.646,0.378c1.423,-0.599 2.856,-1.178 4.256,-1.811c8.949,-4.045 26.508,-5.02 36.23,-6.255c22.532,-2.862 43.4,-2.923 66.014,-1.504c8.773,0.551 29.664,4.454 38.382,5.658c7.461,1.031 39.732,-1.974 65.693,-1.68c0.024,-0.021 0.282,-0.264 0.735,-0.698c2.187,0.259 4.376,0.593 6.562,1.101c3.703,0.859 7.373,0.664 11.139,0.852c0.677,0.034 3.463,0.538 3.976,0.069c0.748,-0.684 -4.532,-2.946 -4.783,-3.034c-4.05,-1.415 -8.023,-2.711 -12.222,-3.548c6.238,-6.175 16.428,-16.58 22.625,-24.524c8.648,-11.085 17.424,-22.417 24.996,-34.272c5.498,-8.608 10.418,-19.906 19.776,-25.073c9.863,-5.445 30.451,-4.404 31.493,10.215c0.547,7.668 -11.733,8.274 -16.508,11.365c-4.12,2.668 -6.422,8.857 -8.216,13.173c-6.551,15.76 -12.733,31.791 -18.936,47.692c-1.506,3.861 -2.931,7.944 -4.477,12.013c6.234,0.591 15.126,1.41 25.459,2.36c-5.833,6.386 -10.771,14.054 -16.4,20.292c-13.032,14.444 -27.487,27.284 -38.543,43.395c-4.874,7.103 -8.766,14.273 -11.488,22.452c-0.901,2.709 -1.316,5.552 -1.785,8.359c-0.147,0.881 -0.286,1.763 -0.435,2.644c-0.004,0.026 -0.116,0.83 -0.209,1.151c-0.057,0.059 -0.089,0.091 -0.089,0.091c0.022,0.083 0.054,0.031 0.089,-0.091c0.493,-0.5 2.868,-2.935 3.271,-3.756c2.272,-4.638 5.216,-8.197 8.046,-12.446c9.357,-14.051 20.688,-26.643 31.607,-39.412c3.904,-4.566 6.752,-10.099 10.44,-14.855c6.196,-7.987 13.041,-15.126 20.235,-22.185c4.001,-3.927 8.489,-7.94 13.016,-11.26c0.279,-0.204 0.583,-0.413 0.904,-0.626c0.001,0.138 0.002,0.277 0.003,0.416c0.879,-0.718 1.767,-1.428 2.662,-2.131c1.218,-0.797 2.425,-1.651 3.347,-2.573c7.624,-5.745 15.627,-11.06 23.344,-16.624c8.125,-5.857 15.868,-12.497 24.407,-17.732c9.637,-5.908 20.291,-9.984 29.836,-16.046c8.329,-5.289 16.956,-8.638 26.771,-6.704c3.01,0.594 7.493,1.566 9.526,4.142c4.576,5.798 7.708,13.623 4.801,20.87c-0.514,1.283 -4.938,4.435 -4.966,4.912c-0.115,1.94 3.253,4.229 3.637,6.454c0.686,3.983 -3.581,5.915 -3.81,9.299c-0.123,1.817 3.022,2.501 2.639,4.399c-0.986,4.886 -7.834,9.664 -11.03,13.058c-3.14,3.335 -5.014,8.129 -7.64,11.91c-1.019,1.466 -1.955,2.968 -2.856,4.483c19.187,2.156 37.064,3.216 56.852,3.122c36.943,-0.174 67.586,-1.515 68.922,14.101c0.421,4.926 -18.036,20.765 -29.365,27.335c-22.609,13.111 -28.057,27.618 -102.875,47.009c-7.909,2.05 -15.506,2.107 -23.179,2.57c9.437,7.895 19.071,17.626 25.243,26.031c7.258,9.884 39.78,43.239 45.441,59.31c0.506,1.434 1.116,3.008 1.747,4.653c3.508,-0.423 9.047,-0.996 16.083,-1.412c8.363,-0.495 18.85,-0.809 30.52,-0.38c4.897,0.18 9.993,0.537 15.232,1.038c11.313,1.081 23.224,2.904 35.123,5.553c0.53,0.094 0.884,0.601 0.79,1.131c-0.094,0.529 -0.601,0.883 -1.131,0.789c-13.743,-1.84 -27.419,-2.415 -40.089,-2.532c-4.135,-0.038 -8.153,-0.031 -12.032,-0.005c-6.469,0.043 -12.533,0.172 -18.034,0.377c-8.591,0.319 -15.8,0.811 -20.997,1.211c-1.204,0.093 -2.299,0.18 -3.277,0.259c0.582,1.78 1.079,3.553 1.4,5.244c3.262,0.16 9.534,0.565 17.844,1.564c8.317,1 18.694,2.556 30.102,5.052c4.787,1.047 9.738,2.305 14.804,3.729c10.941,3.075 22.338,6.986 33.577,11.708c0.504,0.187 0.763,0.748 0.576,1.253c-0.187,0.505 -0.748,0.763 -1.253,0.576c-13.197,-4.254 -26.553,-7.251 -39.001,-9.618c-4.062,-0.772 -8.017,-1.48 -11.839,-2.144c-6.373,-1.107 -12.364,-2.058 -17.814,-2.835c-8.511,-1.213 -15.692,-2.01 -20.877,-2.541c-2.291,-0.234 -4.188,-0.418 -5.635,-0.553c-0.069,6.364 -2.187,9.294 -8.356,10.171c-9.466,1.345 -22.731,-0.94 -31.352,-3.523c-5.168,-1.549 -34.904,-11.517 -46.591,-15.713c-10.574,-3.795 -24.457,-8.103 -35.153,-11.45c-4.634,-1.45 -9.004,-2.731 -13.185,-3.899c1.254,-2.903 2.413,-5.81 4.662,-8.487c1.829,-2.179 5.923,-2.495 8.504,-3.155c0.229,-0.059 2.769,-0.832 2.468,-1.295c-0.714,-1.094 -5.028,-1.806 -6.312,-2.194c-0.247,-0.075 -1.954,-0.477 -1.935,-0.782c0.033,-0.53 1.812,-1.668 2.191,-2.01c3.295,-2.97 6.412,-2.533 10.254,-4.22c0.942,-0.414 4.141,-1.945 3.567,-3.416c-1.278,-3.279 -6.627,-0.531 -8.613,0.223c-0.209,0.08 -3.566,1.06 -3.521,0.905c0.305,-1.043 1.988,-2.359 2.661,-3.187c1.884,-2.318 4.077,-7.567 6.66,-9.067c0.923,-0.537 2.469,-0.274 3.488,-0.456c2.779,-0.495 7.175,-2.837 6.806,-6.358c-0.106,-1.007 -1.513,-0.397 -2.012,-0.165c-2.193,1.021 -4.234,2.05 -6.523,2.863c-0.874,0.311 -3.207,0.621 -2.053,-1.148c0.153,-0.235 -0.06,-1.192 -0.159,-1.594c0.147,-0.026 0.174,-0.076 -0.045,-0.18c-0,0 0.018,0.069 0.045,0.18Zm2.116,-4.604c0.01,-0.067 0.017,-0.109 0.017,-0.109c-0.083,0.157 -0.076,0.174 -0.017,0.109Zm-0,-0c-0.04,0.271 -0.124,0.96 0.049,1.006c3.574,0.961 5.046,-3.445 7.671,-5.435c2.3,-1.744 7.773,-1.116 8.98,-4.1c0.693,-1.711 -3.589,-0.272 -3.744,-1.904c-0.103,-1.099 0.793,-2.61 1.182,-3.574c1.057,-2.623 2,-5.13 3.408,-7.597c2.455,-4.303 4.448,-6.914 8.471,-9.98c0.973,-0.741 6.962,-3.423 5.067,-5.029c-1.985,-1.683 -5.367,0.578 -7.437,1.043c-1.951,0.439 -5.346,0.669 -6.92,2.069c-1.98,1.761 -1.873,5.805 -2.831,8.158c-2.136,5.248 -4.486,8.559 -8.2,12.753c-1.073,1.211 -0.544,2.902 -0.823,4.376c-0.27,1.429 -1.281,2.852 -2.041,4.053c-0.611,0.966 -1.269,1.903 -1.894,2.86c-0.034,0.051 -0.75,1.093 -0.938,1.301Zm46.023,-76.995c-0,-0 2.238,-0.731 1.966,-1.088c-2.131,-2.79 -0.539,-4.83 1.027,-7.531c0.137,-0.235 1.837,-3.696 1.47,-3.752c-0.673,-0.101 -3.679,2.378 -4.033,2.83c-1.035,1.32 -1.426,-1.37 -3.809,4.389c-0.647,1.563 -0.229,1.752 -1.087,3.279c-0.307,0.547 -1.48,2.067 -1.27,2.74c0.536,1.716 5.137,-0.867 5.736,-0.867Zm-768.505,150.14c0,0 1.475,-0.102 1.732,0.131c1.466,1.325 5.368,0.954 7.152,0.954c6.329,0 13.339,0.567 19.58,-0.491c2.531,-0.429 4.261,-1.865 3.814,-4.579c-0.546,-3.315 -5.45,-4.797 -8.241,-5.248c-5.737,-0.928 -11.462,-0.824 -17.24,-0.68c-3.241,0.081 -6.746,-0.128 -9.855,0.973c-3.713,1.316 -1.888,4.5 -0.046,6.551c0.222,0.248 3.104,2.696 3.104,2.389Zm662.641,-99.644c0,-0 1.258,-0.973 1.619,-1.133c0.753,-0.334 1.44,-0.765 2.057,-1.313c3.557,-3.155 -0.33,-6.011 -3.737,-6.509c-2.683,-0.392 -5.335,1.126 -6.945,3.207c-2.18,2.82 0.357,4.896 2.992,5.804c0.971,0.334 1.914,0.548 2.942,0.376c0.117,-0.02 1.167,-0.313 1.072,-0.432Zm19.554,-22.023c-0,0 -0.221,-0.684 -0.083,-0.741c1.399,-0.575 1.923,-2.803 0.739,-3.867c-1.422,-1.28 -4.212,-0.02 -5.073,1.384c-1.024,1.667 0.397,2.927 2.019,3.16c0.531,0.076 1.072,0.085 1.607,0.103c0.119,0.004 0.917,0.074 0.791,-0.039Zm63.697,6.108c0,0 1.664,0.489 1.94,0.213c5.164,-5.153 4.865,-14.674 10.916,-18.773c3.663,-2.481 8.146,-2.079 11.835,-4.118c0.534,-0.296 3.455,-2.421 2.512,-3.322c-1.153,-1.101 -5.98,-0.131 -7.38,0.046c-2.891,0.365 -7.399,-0.016 -9.892,1.629c-3.59,2.368 -3.997,9.21 -6.49,12.571c-1.793,2.417 -2.784,4.816 -3.114,7.806c-0.104,0.94 -0.168,1.881 -0.184,2.827c-0.006,0.377 -0.469,1.311 -0.143,1.121Zm-385.857,-66.846c-9.923,-5.725 -24.357,-6.049 -35.827,-1.728c-6.631,2.499 -18.921,10.459 -22.489,16.396c-6.617,11.008 -9.869,20.793 -6.545,34.615c4.647,19.328 27.908,23.151 44.465,17.365c13.373,-4.673 19.564,-12.394 26.746,-29.613c3.404,-8.163 4.004,-31.062 -6.35,-37.035Zm-49.966,33.796c0,0 2.934,1.884 3.64,2.394c8.495,6.139 -3.616,16.149 -10.758,9.818c-3.003,-2.663 -2.835,-7.557 0.163,-10.044c1.321,-1.095 2.969,-1.942 4.664,-2.258c0.295,-0.055 3.337,-0.056 2.291,0.09Zm-210.962,17.057c2.065,-1.869 0.684,-7.388 0.013,-7.805c-1.313,-0.816 -3.111,-0.928 -4.617,-1.001c-3.344,-0.161 -7.357,2.986 -6.243,6.633c1.431,4.687 7.065,5.594 10.847,2.173Zm550.839,43.715c-0,0 1.183,-0.5 1.464,-0.654c1.579,-0.87 3.498,-4.124 1.562,-5.555c-2.551,-1.884 -7.56,-0.99 -9.285,1.595c-1.734,2.597 0.708,3.867 2.879,4.622c0.735,0.256 1.461,0.401 2.242,0.315c0.391,-0.044 1.532,-0.323 1.138,-0.323Zm-24.118,28.593c-0,0 1.81,-2.301 2.133,-2.954c1.259,-2.553 -4.313,-3.161 -5.738,-2.579c-0.601,0.246 -1.128,0.637 -1.605,1.073c-4.206,3.856 1.897,5.833 5.21,4.46Zm11.396,-11.555c-0,-0 2.287,-2.319 2.853,-2.798c0.567,-0.479 1.084,-1.003 1.506,-1.616c1.451,-2.109 0.932,-4.157 -1.719,-4.448c-2.625,-0.288 -5.719,0.334 -7.991,1.673c-1.992,1.174 -3.278,4.028 -1.089,5.746c1.57,1.232 4.494,1.76 6.44,1.443Zm-613.123,-87.347c0.539,-1.339 -1.543,-6.265 -1.994,-6.406c-1.237,-0.389 -3.072,-1.813 -5.861,-0.83c-4.007,1.412 -5.504,5.037 -3.377,7.928c3.403,4.625 9.176,4.412 11.232,-0.692Zm319.704,161.593c1.031,1.122 2.108,2.185 3.261,3.155c6.175,5.191 13.896,7.873 20.202,12.756c8.413,-0.033 16.825,-0.085 25.236,-0.178c0.681,-1.755 1.131,-3.598 1.384,-5.483c1.138,-8.489 -2.787,-17.502 -0.394,-25.847c0.643,-2.244 3.146,-7.458 6.35,-5.73c6.663,3.594 4.314,17.369 4.114,23.11c-0.166,4.78 -0.962,9.386 -2.299,13.83c35.432,-0.534 70.87,-1.954 106.452,-5.942c5.007,-0.561 10.107,-0.978 15.285,-1.272c2.428,-2.687 4.705,-5.433 6.29,-8.429c1.791,-3.387 0.613,-9.813 0.656,-13.219c0.147,-11.633 -0.615,-22.86 -2.285,-34.292c-9.928,0.547 -19.973,0.151 -29.821,-1.021c-2.052,-0.244 -6.037,-0.405 -7.359,-2.402c-0.652,-0.984 0.567,-3.967 -0.485,-4.402c-0.501,-0.206 -1.039,-0.35 -1.602,-0.451c-3.566,3.136 -6.508,7.148 -10.972,9.237c-3.134,1.466 -8.011,3.278 -11.349,1.541c-3.579,-1.863 -4.79,-4.306 -5.056,-7.011c0.261,-1.882 0.401,-3.311 0.401,-3.311c0.112,0.103 0.042,-1.072 0.033,-1.214c-0.051,-0.807 0.086,-1.614 0.204,-2.409c0.389,-2.596 0.736,-5.125 0.852,-7.752c0.336,-7.615 2.489,-14.432 5.468,-21.419c1.811,-4.249 4.274,-8.165 6.147,-12.374c2.62,-5.887 4.466,-11.786 8.08,-17.214c4.889,-7.341 11.77,-13.643 17.438,-20.432c5.002,-5.991 9.393,-14.57 17.87,-16.243c3.443,-0.68 5.245,2.463 6.377,4.953c2.62,5.768 2.569,12.346 3.66,18.516c1.6,9.053 0.34,19.076 0.832,28.275c0.665,12.439 3.224,25.22 5.366,37.423c0.729,4.153 1.061,11.559 3.672,16.03c-0.169,0.066 -0.338,0.131 -0.507,0.195c0.326,2.64 1.004,5.183 2.379,7.504c2.237,3.777 5.116,4.293 8.65,6.119c0.957,0.494 2.594,1.612 2.343,2.915c-0.795,4.123 -8.984,-3.665 -10.309,0.215c-1.89,5.535 2.558,8.335 6.189,11.751c0.625,0.587 3.101,1.927 3.205,2.81c0.215,1.82 -6.983,-0.385 -7.787,2.055c-1.099,3.338 -0.548,8.759 0.785,11.953c0.835,2.001 3.134,3.343 2.928,5.696c-0.181,2.062 -1.43,3.969 -2.706,5.841c49.165,-0.19 103.14,7.879 149.124,8.168c1.031,0.006 2.06,0.014 3.086,0.022c-0.426,-0.705 -0.862,-1.393 -1.312,-2.053c-3.633,-5.319 -8.643,-9.55 -14.025,-12.981c-3.031,-1.932 -6.959,-4.311 -10.694,-4.474c-3.194,-0.14 -7.824,1.814 -10.671,-0.553c-1.53,-1.273 -0.822,-5.252 -0.443,-6.867c0.842,-3.589 3.705,-3.006 6.222,-4.556c4.619,-2.845 8.976,-6.463 12.746,-10.347c0.773,-0.797 2.564,-3.084 4.464,-5.461c0.38,-0.396 0.786,-0.825 1.218,-1.289c9.677,-10.392 35.79,-61.2 37.317,-65.111c1.527,-3.912 17.999,-34.814 20.808,-40.904c2.808,-6.089 18.965,-36.82 27.346,-50.689c7.797,-12.903 9.363,-17.379 9.444,-17.619c0.104,0.013 0.207,0.026 0.308,0.038c1.026,-2.692 2.071,-5.371 3.418,-7.758c3.181,-5.64 7.647,-10.741 10.274,-16.658c1.448,-3.262 8.381,-13.787 -0.014,-11.592c-0.95,0.249 -1.886,0.556 -2.796,0.928c-9.478,3.873 -16.924,13.737 -23.03,21.376c-2.953,3.694 -5.687,7.549 -8.366,11.443c5.839,0.599 11.03,1.153 15.293,1.64c-0.97,1.487 -2.229,3.555 -3.351,5.832c-2.213,4.496 -31.756,59.445 -33.685,63.793c-1.93,4.348 -24.512,46.769 -26.679,50.592c-2.168,3.823 -19.427,30.941 -21.329,35.163c-1.334,2.961 -8.556,11.933 -12.752,17.029c-6.266,-1.605 -12.462,-3.245 -18.95,-5.195c-18.016,-5.415 -32.896,-8.51 -54.077,-14.22c-9.298,-2.506 -26.195,7.263 -35.805,7.911c-7.607,0.513 -10.599,3.579 -15.667,-3.856c-0.734,-1.077 -1.712,-1.577 -2.854,-1.696c-2.721,-6.735 -4.023,-14.375 -5.108,-21.532c-0.901,-5.941 -2.261,-11.856 -2.837,-17.843c-0.499,-5.191 -0.196,-10.513 -0.956,-15.669c-1.633,-11.078 -4.338,-21.293 -4.5,-32.604c-0.103,-7.215 -3.217,-20.52 -10.433,-24.135c-12.224,-6.125 -19.711,10.755 -24.825,17.994c-3.9,5.519 -5.503,9.378 -9.876,14.604c-5.704,6.817 -16.532,21.854 -22.452,30.287c-4.893,6.971 -7.929,14.297 -11.957,21.788c-3.13,5.821 -3.26,9.435 -5.869,15.535c-0.645,1.508 -1.35,3.158 -1.969,4.878c-7.846,0.597 -14.917,1.632 -21.873,0.311c-1.785,1.89 -3.748,3.502 -5.721,4.709c-9.809,6 -22.607,5.869 -33.4,9.307c-13.887,4.423 -26.438,12.252 -40.403,16.421c-3.584,1.07 -7.1,1.926 -10.865,1.376c-2.59,-0.377 -8.033,-3.996 -10.575,-2.33c-0.718,0.47 -1.064,2.037 -1.694,2.694c-0.519,0.542 -1.536,0.853 -1.915,1.486c-0.531,0.888 1.903,2.271 2.414,2.622c2.425,1.666 4.603,3.833 6.768,5.918c0.46,-0.071 0.871,-0.137 1.189,-0.171c1.378,-0.146 2.75,-0.363 4.097,-0.69c1.031,-0.251 2.05,-0.563 3.021,-0.994c0.455,-0.202 0.967,-1.137 1.288,-0.757c0.083,0.099 -1.032,1.557 -1.096,1.645c-1.282,1.736 -2.888,3.369 -4.99,4.045c-0.066,0.021 -0.132,0.041 -0.198,0.06c2.58,2.596 4.82,5.597 7.117,8.521c1.183,0.014 2.526,-0.28 4.66,-0.543c1.794,-0.22 6.787,-0.751 7.314,1.866c0.181,0.899 -3.175,1.453 -3.724,1.666c-1.438,0.56 -3.07,0.985 -4.378,1.646Zm457.757,-250.195c0.032,0.102 0.925,-0.323 1,-0.36c0.854,-0.412 1.494,-1.101 1.705,-2.043c0.438,-1.955 -0.986,-4.61 -3.06,-5.036c-4.47,-0.919 -4.539,4.439 -2.057,6.623c0.382,0.336 2.412,0.816 2.412,0.816Zm-129.638,134.748c0,0 1.574,-1.984 2.145,-2.219c1.529,-0.629 5.162,-3.815 2.625,-5.466c-2.05,-1.334 -5.877,-1.059 -7.98,-0.088c-2.085,0.961 -5.013,4.093 -3.723,6.577c1.133,2.181 4.98,1.984 6.933,1.196Zm-371.98,-108.307c-0,0 0.068,0.907 0.214,0.954c4.21,1.367 7.091,-2.735 9.608,-6.583c1.146,-1.752 1.988,-5.869 -0.325,-6.906c-0.441,-0.197 -0.922,-0.175 -1.379,-0.12c-0.375,0.045 -0.757,0.133 -1.115,0.287c-2.096,0.9 0.135,3.58 -0.636,5.682c-0.471,1.286 -0.077,1.38 -2.85,3.309c-1.084,0.755 -3.237,0.553 -4.351,0.999c-0.351,0.141 -1.131,0.115 -1.376,0.518c-0.541,0.889 1.159,1.54 1.49,1.657c0.095,0.034 0.857,0.203 0.72,0.203Zm-464.98,175.057c-0.51,-1.247 -1.266,-2.874 -1.559,-4.823c-0.211,-1.4 -0.152,-2.97 0.445,-4.693c1.271,-3.67 3.327,-6.04 5.779,-7.538c2.808,-1.715 6.133,-2.233 9.37,-2.299c3.365,-0.095 5.44,0.194 6.893,0.718c1.418,0.51 2.14,1.305 2.985,2.128c0.767,0.747 1.597,1.518 2.75,2.259c3.034,1.95 4.423,5.85 4.821,9.875c0.42,4.25 -0.323,8.722 -1.97,11.615c-1.703,2.992 -3.816,5.572 -6.27,7.767c-2.478,2.217 -5.308,4.036 -8.417,5.492c-1.261,0.591 -8.092,2.054 -15.671,1.102c-4.868,-0.611 -10.066,-2.244 -14.267,-5.92c-4.522,-3.956 -6.953,-9.152 -8.081,-14.309c-1.396,-6.387 -0.801,-12.744 0.529,-16.779c2.397,-7.307 6.531,-12.756 10.97,-16.805c6.771,-6.175 14.275,-9.118 17.684,-10.285c9.133,-3.14 20.372,-3.617 30.756,-0.664c9.658,2.746 18.589,8.471 24.323,17.873c4.279,7.011 6.662,15.81 7.674,24.186c1.261,10.431 0.446,20.22 -1.708,25.037c-0.93,2.08 -3.168,5.546 -5.717,9.189c-3.639,5.2 -7.918,10.736 -10.131,13.231c-3.354,3.769 -10.02,9.413 -19.29,13.449c-6.49,2.825 -14.257,4.857 -23.066,4.897c-5.065,0.021 -11.125,-0.518 -17.125,-1.534c-5.913,-1.002 -11.769,-2.467 -16.543,-4.335c-2.023,-0.792 -3.835,-1.792 -5.529,-2.94c-2.683,-1.816 -5.073,-3.997 -7.52,-6.313c-4.606,-4.361 -8.925,-9.041 -12.545,-14.126c-3.613,-5.074 -6.526,-10.552 -8.305,-16.521c-2.026,-6.802 -2.455,-16.361 -1.882,-25.577c0.632,-10.16 2.474,-19.914 4.927,-25.061c0.748,-1.571 3.381,-5.092 6.341,-8.863c4.386,-5.587 9.52,-11.677 10.806,-12.849c6.826,-6.226 13.737,-11.118 21.248,-14.798c7.469,-3.659 15.533,-6.117 24.703,-7.489c5.843,-0.892 11.366,-1.258 16.684,-1.27c3.774,-0.008 7.442,0.137 11.067,0.61c8.908,1.163 17.492,3.972 26.391,8.986c0.419,0.261 0.971,0.134 1.233,-0.284c0.261,-0.418 0.135,-0.97 -0.284,-1.232c-8.767,-6.072 -17.415,-9.883 -26.585,-11.851c-3.813,-0.818 -7.708,-1.336 -11.733,-1.482c-5.592,-0.203 -11.41,0.32 -17.565,1.219c-9.755,1.455 -18.336,4.066 -26.279,7.964c-7.949,3.901 -15.259,9.091 -22.472,15.697c-1.35,1.237 -6.774,7.628 -11.378,13.519c-3.266,4.18 -6.108,8.128 -6.931,9.867c-2.624,5.557 -4.689,16.054 -5.33,27.006c-0.578,9.859 -0.013,20.077 2.18,27.345c1.959,6.495 5.134,12.461 9.087,17.977c3.821,5.332 8.368,10.245 13.224,14.814c2.653,2.497 5.258,4.832 8.164,6.79c1.991,1.341 4.121,2.508 6.498,3.434c5.056,1.97 11.254,3.526 17.516,4.577c6.293,1.057 12.65,1.607 17.96,1.577c9.54,-0.05 17.95,-2.255 24.975,-5.32c10.085,-4.398 17.315,-10.573 20.963,-14.676c2.294,-2.571 6.731,-8.279 10.513,-13.636c2.785,-3.943 5.209,-7.709 6.232,-9.962c2.415,-5.312 3.595,-16.116 2.277,-27.662c-1.041,-9.112 -3.621,-18.676 -8.218,-26.33c-6.414,-10.669 -16.432,-17.25 -27.329,-20.421c-11.496,-3.346 -23.964,-2.861 -34.113,0.563c-3.802,1.288 -12.184,4.537 -19.731,11.415c-5.088,4.638 -9.788,10.913 -12.513,19.292c-1.54,4.762 -2.272,12.256 -0.573,19.768c1.409,6.233 4.467,12.465 9.982,17.207c5.097,4.38 11.335,6.377 17.202,7.058c8.975,1.041 17.017,-1.016 18.502,-1.73c3.545,-1.708 6.762,-3.836 9.575,-6.409c2.816,-2.577 5.233,-5.595 7.169,-9.085c2.014,-3.634 3.008,-9.204 2.415,-14.5c-0.615,-5.484 -2.922,-10.606 -7.101,-13.205c-1.159,-0.721 -1.887,-1.51 -2.652,-2.218c-1.092,-1.01 -2.227,-1.923 -4.078,-2.519c-1.815,-0.585 -4.396,-0.872 -8.536,-0.534c-3.847,0.345 -7.743,1.297 -10.944,3.568c-2.83,2.008 -5.17,4.991 -6.396,9.517c-0.59,2.177 -0.533,4.12 -0.154,5.83c0.467,2.108 1.395,3.837 2.047,5.162c0.202,0.45 0.732,0.651 1.182,0.449c0.45,-0.202 0.651,-0.732 0.449,-1.182Zm836.775,-171.945c-0.09,-1.645 -0.165,-3.294 -0.224,-4.95c-0.555,-15.743 2.449,-31.39 3.807,-47.014c0.793,-9.119 0.174,-19.983 12.615,-17.311c4.333,0.93 8.263,5.987 7.299,10.558c-0.643,3.051 -3.743,4.956 -5.06,7.721c-1.844,3.872 -2.265,9.177 -2.764,13.377c-0.857,7.207 -0.708,14.365 -0.452,21.517c-2.994,2.665 -5.935,5.316 -8.55,8.413c-1.474,1.746 -2.213,3.871 -4.036,5.361c-0.904,0.738 -1.781,1.516 -2.635,2.328Z" style="fill:#222;"/><g transform="matrix(120,0,0,120,1768.74,830.424)"></g><text x="347.021px" y="830.424px" style="font-family:'Rockwell-Regular', 'Rockwell', serif;font-size:120px;">Sara Sn<tspan x="785.419px " y="830.424px ">a</tspan>il &amp; Cat Cricket</text></g></svg>